{
    "asset": {
        "version": "2.0",
        "generator": "goxel"
    },
    "buffers": [
        {
            "byteLength": 118528,
            "uri": "data:application/octet-stream;base64,"
        },
        {
            "byteLength": 11112,
            "uri": "data:application/octet-stream;base64,"
        },
        {
            "byteLength": 119168,
            "uri": "data:application/octet-stream;base64,"
        },
        {
            "byteLength": 11172,
            "uri": "data:application/octet-stream;base64,"
        },
        {
            "byteLength": 162816,
            "uri": "data:application/octet-stream;base64,"
        },
        {
            "byteLength": 15264,
            "uri": "data:application/octet-stream;base64,"
        },
        {
            "byteLength": 135424,
            "uri": "data:application/octet-stream;base64,"
        },
        {
            "byteLength": 12696,
            "uri": "data:application/octet-stream;base64,"
        },
        {
            "byteLength": 6272,
            "uri": "data:application/octet-stream;base64,"
        },
        {
            "byteLength": 588,
            "uri": "data:application/octet-stream;base64,"
        }
    ],
    "bufferViews": [
        {
            "buffer": 1,
            "byteLength": 11112,
            "target": 34963
        },
        {
            "buffer": 0,
            "byteLength": 118528,
            "byteStride": 32,
            "target": 34962
        },
        {
            "buffer": 3,
            "byteLength": 11172,
            "target": 34963
        },
        {
            "buffer": 2,
            "byteLength": 119168,
            "byteStride": 32,
            "target": 34962
        },
        {
            "buffer": 5,
            "byteLength": 15264,
            "target": 34963
        },
        {
            "buffer": 4,
            "byteLength": 162816,
            "byteStride": 32,
            "target": 34962
        },
        {
            "buffer": 7,
            "byteLength": 12696,
            "target": 34963
        },
        {
            "buffer": 6,
            "byteLength": 135424,
            "byteStride": 32,
            "target": 34962
        },
        {
            "buffer": 9,
            "byteLength": 588,
            "target": 34963
        },
        {
            "buffer": 8,
            "byteLength": 6272,
            "byteStride": 32,
            "target": 34962
        }
    ],
    "meshes": [
        {
            "primitives": [
                {
                    "attributes": {
                        "POSITION": 1,
                        "NORMAL": 2,
                        "TEXCOORD_0": 3
                    },
                    "material": 0,
                    "indices": 0
                }
            ]
        },
        {
            "primitives": [
                {
                    "attributes": {
                        "POSITION": 5,
                        "NORMAL": 6,
                        "TEXCOORD_0": 7
                    },
                    "material": 0,
                    "indices": 4
                }
            ]
        },
        {
            "primitives": [
                {
                    "attributes": {
                        "POSITION": 9,
                        "NORMAL": 10,
                        "TEXCOORD_0": 11
                    },
                    "material": 0,
                    "indices": 8
                }
            ]
        },
        {
            "primitives": [
                {
                    "attributes": {
                        "POSITION": 13,
                        "NORMAL": 14,
                        "TEXCOORD_0": 15
                    },
                    "material": 0,
                    "indices": 12
                }
            ]
        },
        {
            "primitives": [
                {
                    "attributes": {
                        "POSITION": 17,
                        "NORMAL": 18,
                        "TEXCOORD_0": 19
                    },
                    "material": 0,
                    "indices": 16
                }
            ]
        }
    ],
    "accessors": [
        {
            "bufferView": 0,
            "componentType": 5123,
            "count": 5556,
            "type": "SCALAR"
        },
        {
            "bufferView": 1,
            "componentType": 5126,
            "byteOffset": 0,
            "type": "VEC3",
            "count": 3704,
            "min": [
                0.000000000000,
                0.000000000000,
                0.000000000000
            ],
            "max": [
                16.000000000000,
                16.000000000000,
                12.000000000000
            ]
        },
        {
            "bufferView": 1,
            "componentType": 5126,
            "byteOffset": 12,
            "type": "VEC3",
            "count": 3704
        },
        {
            "bufferView": 1,
            "componentType": 5126,
            "byteOffset": 24,
            "type": "VEC2",
            "count": 3704
        },
        {
            "bufferView": 2,
            "componentType": 5123,
            "count": 5586,
            "type": "SCALAR"
        },
        {
            "bufferView": 3,
            "componentType": 5126,
            "byteOffset": 0,
            "type": "VEC3",
            "count": 3724,
            "min": [
                0.000000000000,
                0.000000000000,
                0.000000000000
            ],
            "max": [
                16.000000000000,
                16.000000000000,
                13.000000000000
            ]
        },
        {
            "bufferView": 3,
            "componentType": 5126,
            "byteOffset": 12,
            "type": "VEC3",
            "count": 3724
        },
        {
            "bufferView": 3,
            "componentType": 5126,
            "byteOffset": 24,
            "type": "VEC2",
            "count": 3724
        },
        {
            "bufferView": 4,
            "componentType": 5123,
            "count": 7632,
            "type": "SCALAR"
        },
        {
            "bufferView": 5,
            "componentType": 5126,
            "byteOffset": 0,
            "type": "VEC3",
            "count": 5088,
            "min": [
                0.000000000000,
                0.000000000000,
                0.000000000000
            ],
            "max": [
                16.000000000000,
                16.000000000000,
                16.000000000000
            ]
        },
        {
            "bufferView": 5,
            "componentType": 5126,
            "byteOffset": 12,
            "type": "VEC3",
            "count": 5088
        },
        {
            "bufferView": 5,
            "componentType": 5126,
            "byteOffset": 24,
            "type": "VEC2",
            "count": 5088
        },
        {
            "bufferView": 6,
            "componentType": 5123,
            "count": 6348,
            "type": "SCALAR"
        },
        {
            "bufferView": 7,
            "componentType": 5126,
            "byteOffset": 0,
            "type": "VEC3",
            "count": 4232,
            "min": [
                0.000000000000,
                0.000000000000,
                0.000000000000
            ],
            "max": [
                16.000000000000,
                16.000000000000,
                9.000000000000
            ]
        },
        {
            "bufferView": 7,
            "componentType": 5126,
            "byteOffset": 12,
            "type": "VEC3",
            "count": 4232
        },
        {
            "bufferView": 7,
            "componentType": 5126,
            "byteOffset": 24,
            "type": "VEC2",
            "count": 4232
        },
        {
            "bufferView": 8,
            "componentType": 5123,
            "count": 294,
            "type": "SCALAR"
        },
        {
            "bufferView": 9,
            "componentType": 5126,
            "byteOffset": 0,
            "type": "VEC3",
            "count": 196,
            "min": [
                0.000000000000,
                13.000000000000,
                0.000000000000
            ],
            "max": [
                3.000000000000,
                16.000000000000,
                4.000000000000
            ]
        },
        {
            "bufferView": 9,
            "componentType": 5126,
            "byteOffset": 12,
            "type": "VEC3",
            "count": 196
        },
        {
            "bufferView": 9,
            "componentType": 5126,
            "byteOffset": 24,
            "type": "VEC2",
            "count": 196
        }
    ],
    "nodes": [
        {
            "children": [
                1,
                2,
                3,
                4,
                5
            ],
            "matrix": [
                1,
                0,
                0,
                0,
                0,
                0,
                -1,
                0,
                0,
                1,
                0,
                0,
                0,
                0,
                0,
                1
            ]
        },
        {
            "translation": [
                -16,
                -16,
                0
            ],
            "mesh": 0
        },
        {
            "translation": [
                0,
                -16,
                0
            ],
            "mesh": 1
        },
        {
            "translation": [
                -16,
                0,
                0
            ],
            "mesh": 2
        },
        {
            "translation": [
                0,
                0,
                0
            ],
            "mesh": 3
        },
        {
            "translation": [
                -16,
                0,
                16
            ],
            "mesh": 4
        }
    ],
    "scenes": [
        {
            "nodes": [
                0
            ]
        }
    ],
    "materials": [
        {
            "name": "Material.1",
            "emissiveFactor": [
                0.000000000000,
                0.000000000000,
                0.000000000000
            ],
            "pbrMetallicRoughness": {
                "baseColorFactor": [
                    1.000000000000,
                    1.000000000000,
                    1.000000000000,
                    1.000000000000
                ],
                "metallicFactor": 0.200000002980,
                "roughnessFactor": 0.500000000000,
                "baseColorTexture": {
                    "index": 0
                }
            }
        }
    ],
    "images": [
        {
            "uri": "data:image/png;base64,"
        }
    ],
    "textures": [
        {
            "source": 0
        }
    ]
}